<?xml version="1.0" encoding="UTF-8" ?>
<!DOCTYPE svg PUBLIC "-//W3C//DTD SVG 1.1//EN" "http://www.w3.org/Graphics/SVG/1.1/DTD/svg11.dtd">
<svg width="1024pt" height="1024pt" viewBox="0 0 1024 1024" version="1.1" xmlns="http://www.w3.org/2000/svg">
<g id="#f7f7f7ff">
</g>
<g id="#0c0c0cff">
<path fill="#0c0c0c" opacity="1.00" d=" M 644.37 96.47 C 650.80 94.00 658.63 99.06 658.99 105.93 C 659.02 121.31 658.98 136.69 659.01 152.07 C 659.31 156.50 656.11 160.70 651.95 162.05 C 645.66 164.88 637.44 159.92 637.03 153.02 C 636.97 137.67 637.03 122.31 636.92 106.96 C 636.51 102.25 640.12 98.02 644.37 96.47 Z" />
<path fill="#0c0c0c" opacity="1.00" d=" M 545.37 123.39 C 550.82 121.76 556.42 125.41 558.92 130.16 C 566.41 141.95 574.07 153.62 581.56 165.40 C 583.71 168.56 584.94 172.69 583.27 176.34 C 581.84 180.76 577.40 183.47 572.96 183.99 C 568.60 183.91 564.65 181.28 562.49 177.56 C 554.49 164.91 546.23 152.42 538.33 139.72 C 534.52 133.66 538.39 124.85 545.37 123.39 Z" />
<path fill="#0c0c0c" opacity="1.00" d=" M 745.25 123.24 C 751.91 121.32 759.55 127.00 759.23 134.01 C 759.38 136.29 758.68 138.50 757.43 140.39 C 749.27 153.25 741.10 166.11 733.03 179.02 C 729.73 184.10 722.20 185.20 717.36 181.70 C 712.50 178.44 710.87 171.18 714.24 166.29 C 721.75 154.45 729.31 142.63 736.87 130.81 C 738.76 127.49 741.35 124.20 745.25 123.24 Z" />
<path fill="#0c0c0c" opacity="1.00" d=" M 398.93 158.70 C 420.94 155.23 443.53 155.49 465.45 159.53 C 501.56 166.43 535.57 184.39 561.27 210.73 C 572.08 221.47 581.28 233.79 589.07 246.88 C 619.20 237.79 652.62 242.11 680.35 256.64 C 697.09 265.33 711.57 278.07 722.93 293.08 C 732.70 305.95 739.88 320.60 745.14 335.84 C 765.38 338.90 785.03 346.34 801.85 358.08 C 830.30 377.80 850.13 409.00 857.20 442.78 C 863.99 475.09 859.32 509.73 843.92 538.98 C 832.48 561.00 815.19 579.88 794.26 593.21 C 773.10 583.82 751.82 574.72 730.66 565.33 C 726.81 563.88 723.25 561.48 719.22 560.65 C 709.05 567.55 699.36 575.18 689.43 582.43 C 676.54 592.13 663.49 601.63 650.86 611.65 C 674.98 625.54 699.22 639.21 723.39 653.01 C 720.31 656.27 716.76 659.02 713.50 662.08 C 713.07 662.33 712.21 662.82 711.79 663.07 C 686.86 649.53 662.45 635.01 637.88 620.80 C 628.29 627.08 619.42 634.42 610.14 641.16 C 601.66 647.54 593.04 653.75 584.68 660.29 C 589.97 664.47 595.81 667.88 601.36 671.71 C 619.95 684.23 638.58 696.72 657.06 709.42 C 690.16 732.32 723.33 755.12 756.41 778.04 C 752.11 782.53 747.63 786.83 743.36 791.34 C 742.03 792.53 740.88 794.24 738.98 794.49 C 736.20 793.83 734.16 791.66 731.83 790.16 C 709.77 774.53 687.65 759.00 665.60 743.36 C 662.42 741.20 659.47 738.70 656.11 736.83 C 600.37 785.80 545.38 835.60 490.27 885.26 C 487.98 887.11 485.12 891.59 481.86 889.19 C 462.76 872.63 444.00 855.70 424.96 839.08 C 414.00 829.33 402.84 819.79 391.96 809.95 C 367.43 827.82 342.62 845.33 318.04 863.14 C 316.66 864.45 314.41 864.31 313.26 862.77 C 299.98 849.70 287.51 835.84 274.24 822.76 C 262.18 810.49 249.66 798.67 238.14 785.90 C 224.38 771.64 210.03 757.97 196.48 743.51 C 190.15 736.85 183.84 730.17 177.21 723.80 C 175.47 722.01 172.78 720.07 174.02 717.22 C 175.85 714.87 178.89 713.98 181.35 712.47 C 201.90 700.92 222.51 689.48 243.20 678.17 C 250.34 674.48 257.19 670.18 264.50 666.84 C 284.03 684.31 304.24 701.02 324.05 718.16 C 350.96 699.65 378.04 681.36 405.14 663.11 C 407.89 661.28 410.73 659.56 413.17 657.32 C 394.85 643.17 376.59 628.94 358.11 615.01 C 338.74 626.43 319.19 637.54 299.70 648.76 C 294.70 651.38 290.21 655.25 284.55 656.37 C 281.57 652.83 277.65 650.18 274.90 646.44 C 327.01 615.76 379.38 585.51 431.92 555.58 C 421.63 548.27 410.73 541.81 400.18 534.87 C 396.51 532.57 392.95 530.10 389.14 528.04 C 386.90 529.17 384.68 530.33 382.49 531.55 C 362.87 541.48 343.18 551.29 323.68 561.46 C 317.47 564.22 311.45 567.42 305.44 570.59 C 290.48 578.14 275.36 585.39 260.68 593.47 C 251.14 597.94 241.72 602.74 232.66 608.12 C 223.56 602.25 213.93 597.21 205.20 590.79 C 191.55 580.99 179.40 569.03 169.84 555.18 C 153.37 531.53 144.26 502.80 144.00 474.00 C 143.07 435.52 158.02 396.64 185.49 369.50 C 202.16 352.41 223.47 340.53 245.95 332.90 C 246.80 313.52 250.60 294.24 256.89 275.88 C 266.41 249.10 282.15 224.41 303.13 205.16 C 329.20 180.20 363.34 164.16 398.93 158.70 M 416.32 209.27 C 391.72 211.66 367.76 220.98 348.30 236.28 C 316.35 260.78 297.53 300.88 298.00 341.00 C 297.93 352.96 298.14 364.92 297.90 376.88 C 296.54 380.93 291.87 382.04 288.07 382.00 C 269.47 381.53 250.55 386.53 235.20 397.21 C 215.91 410.23 202.12 431.03 197.78 453.91 C 194.33 470.28 196.04 487.50 201.82 503.15 C 208.48 521.83 221.52 538.02 238.02 548.96 C 239.64 549.87 241.03 551.48 242.91 551.78 C 332.00 518.49 421.36 485.91 510.33 452.29 C 511.69 451.73 513.24 451.89 514.57 452.47 C 559.29 470.15 604.05 487.69 648.88 505.09 C 686.75 519.88 724.49 535.02 762.45 549.59 C 765.25 551.03 767.39 547.89 769.63 546.70 C 797.41 527.54 812.84 491.99 807.28 458.63 C 804.32 439.81 794.86 422.11 780.90 409.15 C 766.21 395.10 746.25 386.97 726.02 386.00 C 719.34 385.96 712.66 386.05 705.99 385.97 C 703.54 385.63 700.67 384.91 699.34 382.62 C 697.21 378.36 698.47 373.47 697.48 368.96 C 696.77 359.15 694.60 349.43 690.60 340.43 C 683.32 323.31 669.28 309.28 652.26 301.82 C 639.37 296.22 624.88 293.57 610.93 295.99 C 594.25 298.13 579.03 306.03 565.18 315.18 C 563.05 317.06 559.74 315.35 559.06 312.91 C 557.87 309.02 557.07 305.02 555.84 301.14 C 546.62 270.69 525.88 243.72 498.45 227.50 C 480.45 216.82 459.93 210.45 439.07 209.01 C 431.49 208.92 423.89 208.58 416.32 209.27 M 511.18 467.38 C 497.95 473.12 484.61 478.66 471.22 484.02 C 485.23 491.37 499.23 498.77 513.04 506.51 C 526.43 499.62 539.66 492.36 552.77 484.95 C 547.78 482.15 542.37 480.20 537.15 477.89 C 528.50 474.39 519.96 470.50 511.18 467.38 M 410.60 516.46 C 408.35 517.66 405.82 518.50 404.05 520.40 C 418.07 528.79 431.57 538.01 445.46 546.60 C 446.55 547.49 447.78 546.25 448.81 545.86 C 465.29 536.09 481.95 526.61 498.40 516.77 C 495.74 514.55 492.55 513.18 489.58 511.48 C 478.67 505.32 467.65 499.39 456.89 492.98 C 441.47 500.83 426.04 508.66 410.60 516.46 M 549.19 504.16 C 540.34 509.23 531.27 513.94 522.50 519.17 C 539.84 529.56 557.60 539.28 574.90 549.77 C 591.09 538.65 607.82 528.30 623.84 516.94 C 616.02 513.00 607.80 509.91 599.86 506.19 C 589.87 501.75 579.99 497.07 569.97 492.71 C 562.87 496.19 556.16 500.42 549.19 504.16 M 595.91 553.71 C 615.33 564.33 634.60 575.22 653.82 586.19 C 654.92 586.71 656.36 587.73 657.51 586.64 C 672.79 575.75 687.78 564.45 703.14 553.66 C 701.03 551.97 698.45 551.08 696.04 549.95 C 677.34 541.22 658.45 532.90 639.90 523.86 C 625.00 533.44 610.64 543.86 595.91 553.71 M 467.76 552.70 C 485.75 563.82 503.67 575.06 521.84 585.87 C 535.28 576.79 548.79 567.82 562.18 558.68 C 553.20 553.21 543.82 548.43 534.69 543.21 C 525.73 538.48 517.13 533.05 507.98 528.68 C 494.63 536.77 481.05 544.51 467.76 552.70 M 372.69 607.09 C 390.77 621.07 408.96 634.91 426.96 649.01 C 443.12 638.11 459.37 627.36 475.57 616.52 C 486.27 609.12 497.39 602.31 507.88 594.61 C 489.35 583.87 471.34 572.27 453.01 561.21 C 426.43 576.85 399.36 591.62 372.69 607.09 M 508.17 612.77 C 517.43 618.92 526.90 624.76 536.12 630.96 C 537.55 631.84 538.92 633.03 540.65 633.28 C 543.99 636.45 548.19 638.48 551.97 641.06 C 557.97 644.78 563.74 648.86 569.90 652.30 C 575.15 648.41 580.74 644.89 585.45 640.33 C 587.54 639.73 589.09 638.04 590.84 636.83 C 598.67 630.97 606.47 625.10 614.33 619.28 C 614.99 618.69 615.83 618.19 616.18 617.33 C 620.04 615.29 623.28 612.31 626.83 609.81 C 632.14 605.67 637.70 601.87 642.87 597.56 C 629.65 590.79 616.82 583.31 603.79 576.20 C 599.61 574.01 595.69 571.30 591.24 569.68 L 591.06 569.16 C 587.83 567.27 584.58 565.41 581.16 563.88 C 556.78 580.09 532.15 595.99 508.17 612.77 M 440.18 658.44 C 460.57 673.48 480.87 688.64 500.97 704.08 C 519.36 690.24 537.81 676.49 556.23 662.71 C 552.88 660.00 549.14 657.84 545.59 655.42 C 528.93 644.37 512.24 633.36 495.56 622.35 C 495.20 622.26 494.48 622.08 494.12 621.99 C 476.08 634.03 458.03 646.11 440.18 658.44 M 327.39 734.43 C 326.48 735.10 325.35 735.64 324.80 736.70 C 322.36 737.87 320.15 739.44 318.04 741.12 C 316.87 740.28 315.73 739.40 314.61 738.52 C 292.09 719.62 269.33 700.99 246.56 682.38 C 245.64 681.85 244.52 680.39 243.39 681.31 C 221.07 693.77 198.88 706.46 176.64 719.07 C 183.23 725.91 190.15 732.45 196.54 739.49 C 199.21 742.11 201.43 745.30 204.61 747.35 C 206.56 750.35 209.31 752.67 211.79 755.21 C 218.74 762.25 225.71 769.29 232.70 776.31 C 235.08 778.70 237.32 781.28 240.14 783.20 C 242.41 786.77 245.70 789.55 248.47 792.73 C 257.80 802.66 267.76 811.97 277.29 821.72 C 286.90 831.15 296.01 841.13 305.86 850.29 C 328.59 832.45 351.85 815.32 374.89 797.89 C 378.09 795.40 381.55 793.22 384.31 790.23 C 384.68 790.09 385.40 789.81 385.77 789.67 C 416.84 766.44 447.96 743.25 479.18 720.21 C 482.19 717.86 485.58 715.97 488.26 713.21 C 467.98 697.75 447.47 682.59 427.01 667.36 C 393.66 689.50 360.53 711.98 327.39 734.43 M 571.11 670.17 C 546.24 688.60 521.51 707.20 496.71 725.73 C 467.85 747.79 438.42 769.11 409.45 791.03 C 434.28 812.74 459.82 833.67 484.33 855.75 C 514.98 829.30 545.39 802.58 576.06 776.15 C 598.25 757.14 620.11 737.74 642.49 718.95 C 618.83 702.50 594.92 686.39 571.11 670.17 Z" />
<path fill="#0c0c0c" opacity="1.00" d=" M 580.42 203.45 C 600.30 188.55 625.29 180.95 650.07 181.30 C 667.18 181.93 684.22 185.86 699.65 193.35 C 718.87 202.51 735.53 217.10 746.89 235.13 C 756.70 250.67 762.46 268.65 763.98 286.93 C 764.37 296.97 764.54 307.08 763.11 317.05 C 762.84 319.85 762.73 323.48 759.79 324.88 C 758.60 324.99 757.42 325.04 756.25 325.02 C 755.28 323.86 754.21 322.74 753.68 321.31 C 750.30 313.65 746.41 306.22 741.89 299.17 C 740.16 296.37 737.88 293.67 737.77 290.22 C 734.97 269.86 725.79 250.34 711.25 235.75 C 698.48 223.02 681.93 213.92 664.09 210.90 C 641.39 206.91 617.27 212.25 598.37 225.47 C 596.61 227.23 593.71 226.47 592.58 224.41 C 588.39 218.30 583.82 212.45 579.46 206.47 C 578.46 205.46 579.57 204.10 580.42 203.45 Z" />
<path fill="#0c0c0c" opacity="1.00" d=" M 814.34 198.27 C 821.46 196.89 828.71 203.61 827.96 210.84 C 827.18 214.69 824.95 218.46 821.32 220.24 C 809.93 226.25 798.40 231.99 786.96 237.91 C 783.83 239.47 780.65 241.54 776.99 241.05 C 769.66 241.18 763.74 232.56 766.76 225.79 C 767.93 222.57 770.63 220.15 773.67 218.70 C 784.24 213.28 794.78 207.79 805.36 202.37 C 808.28 200.86 811.15 199.17 814.34 198.27 Z" />
<path fill="#0c0c0c" opacity="1.00" d=" M 790.38 294.39 C 791.82 293.80 793.42 294.05 794.95 293.98 C 809.32 294.01 823.70 294.01 838.07 293.98 C 844.37 293.63 850.06 299.73 849.33 306.00 C 849.37 311.99 843.92 316.86 838.08 316.91 C 823.70 317.12 809.32 316.94 794.94 317.00 C 790.31 317.21 785.61 314.61 783.64 310.37 C 780.68 304.37 783.92 296.37 790.38 294.39 Z" />
</g>
<g id="#268be5ff">
<path fill="#268be5" opacity="1.00" d=" M 511.18 467.38 C 519.96 470.50 528.50 474.39 537.15 477.89 C 542.37 480.20 547.78 482.15 552.77 484.95 C 539.66 492.36 526.43 499.62 513.04 506.51 C 499.23 498.77 485.23 491.37 471.22 484.02 C 484.61 478.66 497.95 473.12 511.18 467.38 Z" />
<path fill="#268be5" opacity="1.00" d=" M 410.60 516.46 C 426.04 508.66 441.47 500.83 456.89 492.98 C 467.65 499.39 478.67 505.32 489.58 511.48 C 492.55 513.18 495.74 514.55 498.40 516.77 C 481.95 526.61 465.29 536.09 448.81 545.86 C 447.78 546.25 446.55 547.49 445.46 546.60 C 431.57 538.01 418.07 528.79 404.05 520.40 C 405.82 518.50 408.35 517.66 410.60 516.46 Z" />
<path fill="#268be5" opacity="1.00" d=" M 549.19 504.16 C 556.16 500.42 562.87 496.19 569.97 492.71 C 579.99 497.07 589.87 501.75 599.86 506.19 C 607.80 509.91 616.02 513.00 623.84 516.94 C 607.82 528.30 591.09 538.65 574.90 549.77 C 557.60 539.28 539.84 529.56 522.50 519.17 C 531.27 513.94 540.34 509.23 549.19 504.16 Z" />
<path fill="#268be5" opacity="1.00" d=" M 382.49 531.55 C 384.68 530.33 386.90 529.17 389.14 528.04 C 392.95 530.10 396.51 532.57 400.18 534.87 C 410.73 541.81 421.63 548.27 431.92 555.58 C 379.38 585.51 327.01 615.76 274.90 646.44 C 265.52 638.04 256.21 629.56 246.73 621.27 C 242.09 616.83 236.93 612.93 232.66 608.12 C 241.72 602.74 251.14 597.94 260.68 593.47 C 265.62 593.12 269.60 589.93 273.94 587.90 C 283.32 583.30 292.58 578.44 302.01 573.94 C 303.47 573.18 305.29 572.49 305.44 570.59 C 311.45 567.42 317.47 564.22 323.68 561.46 C 325.49 561.17 327.35 560.92 329.01 560.08 C 346.10 551.43 363.18 542.73 380.35 534.23 C 381.54 533.77 382.21 532.75 382.49 531.55 Z" />
<path fill="#268be5" opacity="1.00" d=" M 467.76 552.70 C 481.05 544.51 494.63 536.77 507.98 528.68 C 517.13 533.05 525.73 538.48 534.69 543.21 C 543.82 548.43 553.20 553.21 562.18 558.68 C 548.79 567.82 535.28 576.79 521.84 585.87 C 503.67 575.06 485.75 563.82 467.76 552.70 Z" />
<path fill="#268be5" opacity="1.00" d=" M 372.69 607.09 C 399.36 591.62 426.43 576.85 453.01 561.21 C 471.34 572.27 489.35 583.87 507.88 594.61 C 497.39 602.31 486.27 609.12 475.57 616.52 C 459.37 627.36 443.12 638.11 426.96 649.01 C 408.96 634.91 390.77 621.07 372.69 607.09 Z" />
<path fill="#268be5" opacity="1.00" d=" M 508.17 612.77 C 532.15 595.99 556.78 580.09 581.16 563.88 C 584.58 565.41 587.83 567.27 591.06 569.16 L 591.24 569.68 C 591.94 572.89 595.78 573.40 598.17 574.98 C 612.03 582.74 625.80 590.68 639.98 597.88 C 633.15 602.69 626.74 608.04 619.88 612.81 C 618.18 613.89 616.82 615.40 616.18 617.33 C 615.83 618.19 614.99 618.69 614.33 619.28 C 606.47 625.10 598.67 630.97 590.84 636.83 C 589.09 638.04 587.54 639.73 585.45 640.33 C 579.03 641.62 575.19 647.73 569.35 650.32 C 562.07 645.30 554.47 640.77 547.17 635.78 C 545.24 634.39 543.04 633.42 540.65 633.28 C 538.92 633.03 537.55 631.84 536.12 630.96 C 526.90 624.76 517.43 618.92 508.17 612.77 Z" />
<path fill="#268be5" opacity="1.00" d=" M 299.70 648.76 C 319.19 637.54 338.74 626.43 358.11 615.01 C 376.59 628.94 394.85 643.17 413.17 657.32 C 410.73 659.56 407.89 661.28 405.14 663.11 C 378.04 681.36 350.96 699.65 324.05 718.16 C 304.24 701.02 284.03 684.31 264.50 666.84 C 271.16 663.33 277.41 658.80 284.55 656.37 C 290.21 655.25 294.70 651.38 299.70 648.76 Z" />
<path fill="#268be5" opacity="1.00" d=" M 711.79 663.07 C 712.21 662.82 713.07 662.33 713.50 662.08 C 736.94 676.24 760.91 689.50 784.47 703.46 C 792.93 708.50 801.56 713.25 810.02 718.30 C 810.28 720.17 809.68 721.95 808.24 723.21 C 790.70 741.24 774.03 760.11 756.41 778.04 C 723.33 755.12 690.16 732.32 657.06 709.42 C 656.76 707.60 656.52 705.54 658.42 704.49 C 671.24 694.31 683.91 683.93 696.72 673.72 C 701.64 670.03 705.95 665.37 711.79 663.07 Z" />
<path fill="#268be5" opacity="1.00" d=" M 327.39 734.43 C 360.53 711.98 393.66 689.50 427.01 667.36 C 447.47 682.59 467.98 697.75 488.26 713.21 C 485.58 715.97 482.19 717.86 479.18 720.21 C 447.96 743.25 416.84 766.44 385.77 789.67 C 385.40 789.81 384.68 790.09 384.31 790.23 C 381.78 790.71 379.49 791.90 377.37 793.31 C 369.26 785.77 360.16 779.43 351.99 771.98 C 341.15 761.99 329.92 752.45 319.18 742.37 C 321.30 740.76 323.75 739.27 324.80 736.70 C 325.35 735.64 326.48 735.10 327.39 734.43 Z" />
<path fill="#268be5" opacity="1.00" d=" M 243.39 681.31 C 244.52 680.39 245.64 681.85 246.56 682.38 C 269.33 700.99 292.09 719.62 314.61 738.52 C 314.69 740.06 315.95 742.20 314.36 743.32 C 297.70 755.31 280.89 767.15 264.38 779.38 C 259.02 783.76 252.67 787.08 248.47 792.73 C 245.70 789.55 242.41 786.77 240.14 783.20 C 239.19 781.42 238.26 779.59 236.80 778.18 C 229.18 770.80 221.64 763.35 214.25 755.74 C 211.20 752.76 208.53 749.23 204.61 747.35 C 201.43 745.30 199.21 742.11 196.54 739.49 C 190.15 732.45 183.23 725.91 176.64 719.07 C 198.88 706.46 221.07 693.77 243.39 681.31 Z" />
</g>
<g id="#31a0f3ff">
<path fill="#31a0f3" opacity="1.00" d=" M 595.91 553.71 C 610.64 543.86 625.00 533.44 639.90 523.86 C 658.45 532.90 677.34 541.22 696.04 549.95 C 698.45 551.08 701.03 551.97 703.14 553.66 C 687.78 564.45 672.79 575.75 657.51 586.64 C 656.36 587.73 654.92 586.71 653.82 586.19 C 634.60 575.22 615.33 564.33 595.91 553.71 Z" />
<path fill="#31a0f3" opacity="1.00" d=" M 323.68 561.46 C 343.18 551.29 362.87 541.48 382.49 531.55 C 382.21 532.75 381.54 533.77 380.35 534.23 C 363.18 542.73 346.10 551.43 329.01 560.08 C 327.35 560.92 325.49 561.17 323.68 561.46 Z" />
<path fill="#31a0f3" opacity="1.00" d=" M 719.22 560.65 C 723.25 561.48 726.81 563.88 730.66 565.33 C 751.82 574.72 773.10 583.82 794.26 593.21 C 771.50 614.13 746.66 632.67 723.39 653.01 C 699.22 639.21 674.98 625.54 650.86 611.65 C 663.49 601.63 676.54 592.13 689.43 582.43 C 699.36 575.18 709.05 567.55 719.22 560.65 Z" />
<path fill="#31a0f3" opacity="1.00" d=" M 598.17 574.98 C 595.78 573.40 591.94 572.89 591.24 569.68 C 595.69 571.30 599.61 574.01 603.79 576.20 C 616.82 583.31 629.65 590.79 642.87 597.56 C 637.70 601.87 632.14 605.67 626.83 609.81 C 623.28 612.31 620.04 615.29 616.18 617.33 C 616.82 615.40 618.18 613.89 619.88 612.81 C 626.74 608.04 633.15 602.69 639.98 597.88 C 625.80 590.68 612.03 582.74 598.17 574.98 Z" />
<path fill="#31a0f3" opacity="1.00" d=" M 260.68 593.47 C 275.36 585.39 290.48 578.14 305.44 570.59 C 305.29 572.49 303.47 573.18 302.01 573.94 C 292.58 578.44 283.32 583.30 273.94 587.90 C 269.60 589.93 265.62 593.12 260.68 593.47 Z" />
<path fill="#31a0f3" opacity="1.00" d=" M 610.14 641.16 C 619.42 634.42 628.29 627.08 637.88 620.80 C 662.45 635.01 686.86 649.53 711.79 663.07 C 705.95 665.37 701.64 670.03 696.72 673.72 C 683.91 683.93 671.24 694.31 658.42 704.49 C 656.52 705.54 656.76 707.60 657.06 709.42 C 638.58 696.72 619.95 684.23 601.36 671.71 C 595.81 667.88 589.97 664.47 584.68 660.29 C 593.04 653.75 601.66 647.54 610.14 641.16 Z" />
<path fill="#31a0f3" opacity="1.00" d=" M 440.18 658.44 C 458.03 646.11 476.08 634.03 494.12 621.99 C 494.48 622.08 495.20 622.26 495.56 622.35 C 512.24 633.36 528.93 644.37 545.59 655.42 C 549.14 657.84 552.88 660.00 556.23 662.71 C 537.81 676.49 519.36 690.24 500.97 704.08 C 480.87 688.64 460.57 673.48 440.18 658.44 Z" />
<path fill="#31a0f3" opacity="1.00" d=" M 540.65 633.28 C 543.04 633.42 545.24 634.39 547.17 635.78 C 554.47 640.77 562.07 645.30 569.35 650.32 C 575.19 647.73 579.03 641.62 585.45 640.33 C 580.74 644.89 575.15 648.41 569.90 652.30 C 563.74 648.86 557.97 644.78 551.97 641.06 C 548.19 638.48 543.99 636.45 540.65 633.28 Z" />
<path fill="#31a0f3" opacity="1.00" d=" M 571.11 670.17 C 594.92 686.39 618.83 702.50 642.49 718.95 C 620.11 737.74 598.25 757.14 576.06 776.15 C 545.39 802.58 514.98 829.30 484.33 855.75 C 459.82 833.67 434.28 812.74 409.45 791.03 C 438.42 769.11 467.85 747.79 496.71 725.73 C 521.51 707.20 546.24 688.60 571.11 670.17 Z" />
<path fill="#31a0f3" opacity="1.00" d=" M 318.04 741.12 C 320.15 739.44 322.36 737.87 324.80 736.70 C 323.75 739.27 321.30 740.76 319.18 742.37 C 329.92 752.45 341.15 761.99 351.99 771.98 C 360.16 779.43 369.26 785.77 377.37 793.31 C 379.49 791.90 381.78 790.71 384.31 790.23 C 381.55 793.22 378.09 795.40 374.89 797.89 C 351.85 815.32 328.59 832.45 305.86 850.29 C 296.01 841.13 286.90 831.15 277.29 821.72 C 267.76 811.97 257.80 802.66 248.47 792.73 C 252.67 787.08 259.02 783.76 264.38 779.38 C 280.89 767.15 297.70 755.31 314.36 743.32 C 315.95 742.20 314.69 740.06 314.61 738.52 C 315.73 739.40 316.87 740.28 318.04 741.12 Z" />
<path fill="#31a0f3" opacity="1.00" d=" M 204.61 747.35 C 208.53 749.23 211.20 752.76 214.25 755.74 C 221.64 763.35 229.18 770.80 236.80 778.18 C 238.26 779.59 239.19 781.42 240.14 783.20 C 237.32 781.28 235.08 778.70 232.70 776.31 C 225.71 769.29 218.74 762.25 211.79 755.21 C 209.31 752.67 206.56 750.35 204.61 747.35 Z" />
</g>
</svg>
